%TF.GenerationSoftware,KiCad,Pcbnew,(5.1.6)-1*%
%TF.CreationDate,2022-05-14T23:18:14+05:30*%
%TF.ProjectId,iSPACE_keychain,69535041-4345-45f6-9b65-79636861696e,rev?*%
%TF.SameCoordinates,Original*%
%TF.FileFunction,Copper,L1,Top*%
%TF.FilePolarity,Positive*%
%FSLAX46Y46*%
G04 Gerber Fmt 4.6, Leading zero omitted, Abs format (unit mm)*
G04 Created by KiCad (PCBNEW (5.1.6)-1) date 2022-05-14 23:18:14*
%MOMM*%
%LPD*%
G01*
G04 APERTURE LIST*
%TA.AperFunction,NonConductor*%
%ADD10C,0.254000*%
%TD*%
G04 APERTURE END LIST*
D10*
G36*
X151069017Y-83434684D02*
G01*
X151163874Y-83452313D01*
X151256341Y-83481308D01*
X151346568Y-83521533D01*
X151434445Y-83573021D01*
X151518564Y-83635331D01*
X151598586Y-83708536D01*
X151674323Y-83792781D01*
X151744461Y-83887019D01*
X151807691Y-83990422D01*
X151863264Y-84102517D01*
X151910229Y-84222522D01*
X151948136Y-84351129D01*
X151976910Y-84486087D01*
X151994215Y-84625829D01*
X152000639Y-84778891D01*
X152000640Y-96323087D01*
X151994215Y-96476173D01*
X151976913Y-96615892D01*
X151948136Y-96750780D01*
X151910230Y-96879468D01*
X151863282Y-96999348D01*
X151807663Y-97111535D01*
X151744421Y-97215037D01*
X151674323Y-97309221D01*
X151598586Y-97393466D01*
X151518564Y-97466671D01*
X151434536Y-97528914D01*
X151346568Y-97580383D01*
X151256222Y-97620731D01*
X151163993Y-97649651D01*
X151069022Y-97667233D01*
X150959603Y-97674001D01*
X84295562Y-97674001D01*
X84185344Y-97667223D01*
X84090512Y-97649657D01*
X83998255Y-97620730D01*
X83907887Y-97580370D01*
X83820400Y-97529210D01*
X83736618Y-97466712D01*
X83655428Y-97392947D01*
X83580113Y-97309217D01*
X83510553Y-97215713D01*
X83447930Y-97112239D01*
X83391557Y-96998561D01*
X83343967Y-96878645D01*
X83306308Y-96750813D01*
X83277554Y-96615870D01*
X83260313Y-96477029D01*
X83254636Y-96324016D01*
X83254636Y-85055977D01*
X148813200Y-85055977D01*
X148813200Y-85327223D01*
X148866117Y-85593256D01*
X148969918Y-85843854D01*
X149120614Y-86069387D01*
X149312413Y-86261186D01*
X149537946Y-86411882D01*
X149788544Y-86515683D01*
X150054577Y-86568600D01*
X150325823Y-86568600D01*
X150591856Y-86515683D01*
X150842454Y-86411882D01*
X151067987Y-86261186D01*
X151259786Y-86069387D01*
X151410482Y-85843854D01*
X151514283Y-85593256D01*
X151567200Y-85327223D01*
X151567200Y-85055977D01*
X151514283Y-84789944D01*
X151410482Y-84539346D01*
X151259786Y-84313813D01*
X151067987Y-84122014D01*
X150842454Y-83971318D01*
X150591856Y-83867517D01*
X150325823Y-83814600D01*
X150054577Y-83814600D01*
X149788544Y-83867517D01*
X149537946Y-83971318D01*
X149312413Y-84122014D01*
X149120614Y-84313813D01*
X148969918Y-84539346D01*
X148866117Y-84789944D01*
X148813200Y-85055977D01*
X83254636Y-85055977D01*
X83254636Y-84777986D01*
X83260313Y-84624973D01*
X83277557Y-84486108D01*
X83306307Y-84351101D01*
X83343967Y-84223350D01*
X83391579Y-84103299D01*
X83447905Y-83989714D01*
X83510515Y-83886341D01*
X83580113Y-83792785D01*
X83655428Y-83709055D01*
X83736618Y-83635290D01*
X83820490Y-83572726D01*
X83907886Y-83521547D01*
X83998138Y-83481308D01*
X84090636Y-83452306D01*
X84185347Y-83434694D01*
X84295424Y-83428001D01*
X150959732Y-83428001D01*
X151069017Y-83434684D01*
G37*
X151069017Y-83434684D02*
X151163874Y-83452313D01*
X151256341Y-83481308D01*
X151346568Y-83521533D01*
X151434445Y-83573021D01*
X151518564Y-83635331D01*
X151598586Y-83708536D01*
X151674323Y-83792781D01*
X151744461Y-83887019D01*
X151807691Y-83990422D01*
X151863264Y-84102517D01*
X151910229Y-84222522D01*
X151948136Y-84351129D01*
X151976910Y-84486087D01*
X151994215Y-84625829D01*
X152000639Y-84778891D01*
X152000640Y-96323087D01*
X151994215Y-96476173D01*
X151976913Y-96615892D01*
X151948136Y-96750780D01*
X151910230Y-96879468D01*
X151863282Y-96999348D01*
X151807663Y-97111535D01*
X151744421Y-97215037D01*
X151674323Y-97309221D01*
X151598586Y-97393466D01*
X151518564Y-97466671D01*
X151434536Y-97528914D01*
X151346568Y-97580383D01*
X151256222Y-97620731D01*
X151163993Y-97649651D01*
X151069022Y-97667233D01*
X150959603Y-97674001D01*
X84295562Y-97674001D01*
X84185344Y-97667223D01*
X84090512Y-97649657D01*
X83998255Y-97620730D01*
X83907887Y-97580370D01*
X83820400Y-97529210D01*
X83736618Y-97466712D01*
X83655428Y-97392947D01*
X83580113Y-97309217D01*
X83510553Y-97215713D01*
X83447930Y-97112239D01*
X83391557Y-96998561D01*
X83343967Y-96878645D01*
X83306308Y-96750813D01*
X83277554Y-96615870D01*
X83260313Y-96477029D01*
X83254636Y-96324016D01*
X83254636Y-85055977D01*
X148813200Y-85055977D01*
X148813200Y-85327223D01*
X148866117Y-85593256D01*
X148969918Y-85843854D01*
X149120614Y-86069387D01*
X149312413Y-86261186D01*
X149537946Y-86411882D01*
X149788544Y-86515683D01*
X150054577Y-86568600D01*
X150325823Y-86568600D01*
X150591856Y-86515683D01*
X150842454Y-86411882D01*
X151067987Y-86261186D01*
X151259786Y-86069387D01*
X151410482Y-85843854D01*
X151514283Y-85593256D01*
X151567200Y-85327223D01*
X151567200Y-85055977D01*
X151514283Y-84789944D01*
X151410482Y-84539346D01*
X151259786Y-84313813D01*
X151067987Y-84122014D01*
X150842454Y-83971318D01*
X150591856Y-83867517D01*
X150325823Y-83814600D01*
X150054577Y-83814600D01*
X149788544Y-83867517D01*
X149537946Y-83971318D01*
X149312413Y-84122014D01*
X149120614Y-84313813D01*
X148969918Y-84539346D01*
X148866117Y-84789944D01*
X148813200Y-85055977D01*
X83254636Y-85055977D01*
X83254636Y-84777986D01*
X83260313Y-84624973D01*
X83277557Y-84486108D01*
X83306307Y-84351101D01*
X83343967Y-84223350D01*
X83391579Y-84103299D01*
X83447905Y-83989714D01*
X83510515Y-83886341D01*
X83580113Y-83792785D01*
X83655428Y-83709055D01*
X83736618Y-83635290D01*
X83820490Y-83572726D01*
X83907886Y-83521547D01*
X83998138Y-83481308D01*
X84090636Y-83452306D01*
X84185347Y-83434694D01*
X84295424Y-83428001D01*
X150959732Y-83428001D01*
X151069017Y-83434684D01*
M02*
