%TF.GenerationSoftware,KiCad,Pcbnew,(5.1.6)-1*%
%TF.CreationDate,2022-05-14T23:18:14+05:30*%
%TF.ProjectId,iSPACE_keychain,69535041-4345-45f6-9b65-79636861696e,rev?*%
%TF.SameCoordinates,Original*%
%TF.FileFunction,Legend,Bot*%
%TF.FilePolarity,Positive*%
%FSLAX46Y46*%
G04 Gerber Fmt 4.6, Leading zero omitted, Abs format (unit mm)*
G04 Created by KiCad (PCBNEW (5.1.6)-1) date 2022-05-14 23:18:14*
%MOMM*%
%LPD*%
G01*
G04 APERTURE LIST*
%ADD10C,0.125000*%
%ADD11C,0.010000*%
G04 APERTURE END LIST*
D10*
X151389590Y-90629076D02*
X151746733Y-90629076D01*
X151818161Y-90605266D01*
X151865780Y-90557647D01*
X151889590Y-90486219D01*
X151889590Y-90438600D01*
X151889590Y-91105266D02*
X151889590Y-90867171D01*
X151389590Y-90867171D01*
X151841971Y-91557647D02*
X151865780Y-91533838D01*
X151889590Y-91462409D01*
X151889590Y-91414790D01*
X151865780Y-91343361D01*
X151818161Y-91295742D01*
X151770542Y-91271933D01*
X151675304Y-91248123D01*
X151603876Y-91248123D01*
X151508638Y-91271933D01*
X151461019Y-91295742D01*
X151413400Y-91343361D01*
X151389590Y-91414790D01*
X151389590Y-91462409D01*
X151413400Y-91533838D01*
X151437209Y-91557647D01*
X151389590Y-91914790D02*
X151746733Y-91914790D01*
X151818161Y-91890980D01*
X151865780Y-91843361D01*
X151889590Y-91771933D01*
X151889590Y-91724314D01*
X151889590Y-92390980D02*
X151889590Y-92152885D01*
X151389590Y-92152885D01*
X151841971Y-92843361D02*
X151865780Y-92819552D01*
X151889590Y-92748123D01*
X151889590Y-92700504D01*
X151865780Y-92629076D01*
X151818161Y-92581457D01*
X151770542Y-92557647D01*
X151675304Y-92533838D01*
X151603876Y-92533838D01*
X151508638Y-92557647D01*
X151461019Y-92581457D01*
X151413400Y-92629076D01*
X151389590Y-92700504D01*
X151389590Y-92748123D01*
X151413400Y-92819552D01*
X151437209Y-92843361D01*
X151389590Y-93200504D02*
X151746733Y-93200504D01*
X151818161Y-93176695D01*
X151865780Y-93129076D01*
X151889590Y-93057647D01*
X151889590Y-93010028D01*
X151889590Y-93676695D02*
X151889590Y-93438600D01*
X151389590Y-93438600D01*
X151841971Y-94129076D02*
X151865780Y-94105266D01*
X151889590Y-94033838D01*
X151889590Y-93986219D01*
X151865780Y-93914790D01*
X151818161Y-93867171D01*
X151770542Y-93843361D01*
X151675304Y-93819552D01*
X151603876Y-93819552D01*
X151508638Y-93843361D01*
X151461019Y-93867171D01*
X151413400Y-93914790D01*
X151389590Y-93986219D01*
X151389590Y-94033838D01*
X151413400Y-94105266D01*
X151437209Y-94129076D01*
X151389590Y-94486219D02*
X151746733Y-94486219D01*
X151818161Y-94462409D01*
X151865780Y-94414790D01*
X151889590Y-94343361D01*
X151889590Y-94295742D01*
X151889590Y-94962409D02*
X151889590Y-94724314D01*
X151389590Y-94724314D01*
X151841971Y-95414790D02*
X151865780Y-95390980D01*
X151889590Y-95319552D01*
X151889590Y-95271933D01*
X151865780Y-95200504D01*
X151818161Y-95152885D01*
X151770542Y-95129076D01*
X151675304Y-95105266D01*
X151603876Y-95105266D01*
X151508638Y-95129076D01*
X151461019Y-95152885D01*
X151413400Y-95200504D01*
X151389590Y-95271933D01*
X151389590Y-95319552D01*
X151413400Y-95390980D01*
X151437209Y-95414790D01*
D11*
%TO.C,G\u002A\u002A\u002A*%
G36*
X95138665Y-87285467D02*
G01*
X95161983Y-87343001D01*
X95198231Y-87433990D01*
X95246238Y-87555420D01*
X95304831Y-87704277D01*
X95372838Y-87877548D01*
X95449088Y-88072219D01*
X95532408Y-88285277D01*
X95621626Y-88513708D01*
X95715569Y-88754499D01*
X95813067Y-89004636D01*
X95912946Y-89261106D01*
X96014035Y-89520894D01*
X96115162Y-89780989D01*
X96215155Y-90038375D01*
X96312840Y-90290039D01*
X96407048Y-90532969D01*
X96496604Y-90764150D01*
X96580338Y-90980568D01*
X96657077Y-91179211D01*
X96725650Y-91357065D01*
X96784883Y-91511116D01*
X96833605Y-91638350D01*
X96870644Y-91735754D01*
X96894828Y-91800315D01*
X96904985Y-91829019D01*
X96905233Y-91830145D01*
X96886001Y-91836505D01*
X96835884Y-91840419D01*
X96766254Y-91842020D01*
X96688481Y-91841440D01*
X96613936Y-91838814D01*
X96553988Y-91834273D01*
X96520009Y-91827953D01*
X96516486Y-91825590D01*
X96505226Y-91799773D01*
X96480478Y-91737773D01*
X96443446Y-91642789D01*
X96395335Y-91518022D01*
X96337350Y-91366670D01*
X96270693Y-91191936D01*
X96196571Y-90997017D01*
X96116188Y-90785116D01*
X96030747Y-90559431D01*
X95941453Y-90323162D01*
X95849511Y-90079511D01*
X95756125Y-89831676D01*
X95662499Y-89582858D01*
X95569839Y-89336257D01*
X95479347Y-89095073D01*
X95392229Y-88862506D01*
X95309688Y-88641755D01*
X95232931Y-88436022D01*
X95163160Y-88248507D01*
X95101580Y-88082408D01*
X95049395Y-87940926D01*
X95007811Y-87827262D01*
X94978031Y-87744616D01*
X94961259Y-87696186D01*
X94957900Y-87684454D01*
X94965050Y-87645183D01*
X94983961Y-87583630D01*
X95010822Y-87509124D01*
X95041823Y-87430995D01*
X95073154Y-87358572D01*
X95101005Y-87301185D01*
X95121565Y-87268164D01*
X95129449Y-87264401D01*
X95138665Y-87285467D01*
G37*
X95138665Y-87285467D02*
X95161983Y-87343001D01*
X95198231Y-87433990D01*
X95246238Y-87555420D01*
X95304831Y-87704277D01*
X95372838Y-87877548D01*
X95449088Y-88072219D01*
X95532408Y-88285277D01*
X95621626Y-88513708D01*
X95715569Y-88754499D01*
X95813067Y-89004636D01*
X95912946Y-89261106D01*
X96014035Y-89520894D01*
X96115162Y-89780989D01*
X96215155Y-90038375D01*
X96312840Y-90290039D01*
X96407048Y-90532969D01*
X96496604Y-90764150D01*
X96580338Y-90980568D01*
X96657077Y-91179211D01*
X96725650Y-91357065D01*
X96784883Y-91511116D01*
X96833605Y-91638350D01*
X96870644Y-91735754D01*
X96894828Y-91800315D01*
X96904985Y-91829019D01*
X96905233Y-91830145D01*
X96886001Y-91836505D01*
X96835884Y-91840419D01*
X96766254Y-91842020D01*
X96688481Y-91841440D01*
X96613936Y-91838814D01*
X96553988Y-91834273D01*
X96520009Y-91827953D01*
X96516486Y-91825590D01*
X96505226Y-91799773D01*
X96480478Y-91737773D01*
X96443446Y-91642789D01*
X96395335Y-91518022D01*
X96337350Y-91366670D01*
X96270693Y-91191936D01*
X96196571Y-90997017D01*
X96116188Y-90785116D01*
X96030747Y-90559431D01*
X95941453Y-90323162D01*
X95849511Y-90079511D01*
X95756125Y-89831676D01*
X95662499Y-89582858D01*
X95569839Y-89336257D01*
X95479347Y-89095073D01*
X95392229Y-88862506D01*
X95309688Y-88641755D01*
X95232931Y-88436022D01*
X95163160Y-88248507D01*
X95101580Y-88082408D01*
X95049395Y-87940926D01*
X95007811Y-87827262D01*
X94978031Y-87744616D01*
X94961259Y-87696186D01*
X94957900Y-87684454D01*
X94965050Y-87645183D01*
X94983961Y-87583630D01*
X95010822Y-87509124D01*
X95041823Y-87430995D01*
X95073154Y-87358572D01*
X95101005Y-87301185D01*
X95121565Y-87268164D01*
X95129449Y-87264401D01*
X95138665Y-87285467D01*
G36*
X102921674Y-95604541D02*
G01*
X102927150Y-96742250D01*
X104043691Y-96747728D01*
X105160233Y-96753207D01*
X105160233Y-96943333D01*
X102577900Y-96943333D01*
X102577900Y-94466833D01*
X102916198Y-94466833D01*
X102921674Y-95604541D01*
G37*
X102921674Y-95604541D02*
X102927150Y-96742250D01*
X104043691Y-96747728D01*
X105160233Y-96753207D01*
X105160233Y-96943333D01*
X102577900Y-96943333D01*
X102577900Y-94466833D01*
X102916198Y-94466833D01*
X102921674Y-95604541D01*
G36*
X95089679Y-93921709D02*
G01*
X97733421Y-93927083D01*
X98278683Y-95334666D01*
X98823945Y-96742250D01*
X100042526Y-96747712D01*
X101261106Y-96753175D01*
X101295086Y-96838099D01*
X101315907Y-96892279D01*
X101327908Y-96927659D01*
X101329066Y-96933178D01*
X101308473Y-96934892D01*
X101248990Y-96936514D01*
X101154059Y-96938019D01*
X101027123Y-96939383D01*
X100871626Y-96940582D01*
X100691009Y-96941592D01*
X100488716Y-96942389D01*
X100268189Y-96942947D01*
X100032872Y-96943243D01*
X99895025Y-96943286D01*
X98460983Y-96943239D01*
X97912419Y-95493369D01*
X97363855Y-94043500D01*
X94880294Y-94043500D01*
X94559837Y-94043419D01*
X94251403Y-94043186D01*
X93957608Y-94042810D01*
X93681070Y-94042300D01*
X93424403Y-94041667D01*
X93190225Y-94040921D01*
X92981151Y-94040073D01*
X92799797Y-94039132D01*
X92648779Y-94038108D01*
X92530714Y-94037012D01*
X92448218Y-94035853D01*
X92403907Y-94034642D01*
X92396733Y-94033912D01*
X92404575Y-94009697D01*
X92421334Y-93970330D01*
X92445936Y-93916336D01*
X95089679Y-93921709D01*
G37*
X95089679Y-93921709D02*
X97733421Y-93927083D01*
X98278683Y-95334666D01*
X98823945Y-96742250D01*
X100042526Y-96747712D01*
X101261106Y-96753175D01*
X101295086Y-96838099D01*
X101315907Y-96892279D01*
X101327908Y-96927659D01*
X101329066Y-96933178D01*
X101308473Y-96934892D01*
X101248990Y-96936514D01*
X101154059Y-96938019D01*
X101027123Y-96939383D01*
X100871626Y-96940582D01*
X100691009Y-96941592D01*
X100488716Y-96942389D01*
X100268189Y-96942947D01*
X100032872Y-96943243D01*
X99895025Y-96943286D01*
X98460983Y-96943239D01*
X97912419Y-95493369D01*
X97363855Y-94043500D01*
X94880294Y-94043500D01*
X94559837Y-94043419D01*
X94251403Y-94043186D01*
X93957608Y-94042810D01*
X93681070Y-94042300D01*
X93424403Y-94041667D01*
X93190225Y-94040921D01*
X92981151Y-94040073D01*
X92799797Y-94039132D01*
X92648779Y-94038108D01*
X92530714Y-94037012D01*
X92448218Y-94035853D01*
X92403907Y-94034642D01*
X92396733Y-94033912D01*
X92404575Y-94009697D01*
X92421334Y-93970330D01*
X92445936Y-93916336D01*
X95089679Y-93921709D01*
G36*
X96181314Y-84228961D02*
G01*
X96198344Y-84279783D01*
X96206590Y-84311708D01*
X96206733Y-84313627D01*
X96186177Y-84316207D01*
X96126954Y-84318639D01*
X96032730Y-84320880D01*
X95907171Y-84322889D01*
X95753943Y-84324625D01*
X95576711Y-84326045D01*
X95379142Y-84327109D01*
X95164902Y-84327774D01*
X94941980Y-84328000D01*
X93677227Y-84328000D01*
X91027804Y-90535125D01*
X88378380Y-96742250D01*
X89680675Y-96747703D01*
X89948002Y-96748876D01*
X90176054Y-96750049D01*
X90367889Y-96751322D01*
X90526568Y-96752796D01*
X90655149Y-96754572D01*
X90756689Y-96756750D01*
X90834249Y-96759432D01*
X90890886Y-96762716D01*
X90929659Y-96766705D01*
X90953627Y-96771499D01*
X90965849Y-96777198D01*
X90969384Y-96783902D01*
X90968020Y-96790037D01*
X90949557Y-96837715D01*
X90931997Y-96885125D01*
X90910925Y-96943333D01*
X89441912Y-96943333D01*
X89140377Y-96943043D01*
X88870136Y-96942186D01*
X88632612Y-96940782D01*
X88429222Y-96938851D01*
X88261388Y-96936411D01*
X88130528Y-96933484D01*
X88038064Y-96930088D01*
X87985415Y-96926243D01*
X87972900Y-96922980D01*
X87980955Y-96902086D01*
X88004717Y-96843586D01*
X88043581Y-96748936D01*
X88096939Y-96619592D01*
X88164186Y-96457013D01*
X88244715Y-96262655D01*
X88337922Y-96037974D01*
X88443198Y-95784429D01*
X88559940Y-95503476D01*
X88687539Y-95196571D01*
X88825391Y-94865173D01*
X88972890Y-94510738D01*
X89129428Y-94134723D01*
X89294401Y-93738584D01*
X89467202Y-93323780D01*
X89647225Y-92891767D01*
X89833865Y-92444002D01*
X90026514Y-91981942D01*
X90224566Y-91507044D01*
X90427417Y-91020765D01*
X90620880Y-90557105D01*
X90827733Y-90061407D01*
X91030417Y-89575695D01*
X91228323Y-89101428D01*
X91420843Y-88640065D01*
X91607367Y-88193065D01*
X91787286Y-87761887D01*
X91959993Y-87347991D01*
X92124877Y-86952835D01*
X92281331Y-86577879D01*
X92428746Y-86224581D01*
X92566512Y-85894401D01*
X92694021Y-85588798D01*
X92810664Y-85309230D01*
X92915833Y-85057158D01*
X93008917Y-84834040D01*
X93089310Y-84641334D01*
X93156402Y-84480501D01*
X93209583Y-84353000D01*
X93248246Y-84260288D01*
X93271781Y-84203826D01*
X93279561Y-84185125D01*
X93290092Y-84179713D01*
X93318653Y-84175039D01*
X93367735Y-84171058D01*
X93439825Y-84167724D01*
X93537411Y-84164992D01*
X93662981Y-84162815D01*
X93819025Y-84161149D01*
X94008030Y-84159947D01*
X94232485Y-84159165D01*
X94494878Y-84158756D01*
X94723079Y-84158666D01*
X96155895Y-84158666D01*
X96181314Y-84228961D01*
G37*
X96181314Y-84228961D02*
X96198344Y-84279783D01*
X96206590Y-84311708D01*
X96206733Y-84313627D01*
X96186177Y-84316207D01*
X96126954Y-84318639D01*
X96032730Y-84320880D01*
X95907171Y-84322889D01*
X95753943Y-84324625D01*
X95576711Y-84326045D01*
X95379142Y-84327109D01*
X95164902Y-84327774D01*
X94941980Y-84328000D01*
X93677227Y-84328000D01*
X91027804Y-90535125D01*
X88378380Y-96742250D01*
X89680675Y-96747703D01*
X89948002Y-96748876D01*
X90176054Y-96750049D01*
X90367889Y-96751322D01*
X90526568Y-96752796D01*
X90655149Y-96754572D01*
X90756689Y-96756750D01*
X90834249Y-96759432D01*
X90890886Y-96762716D01*
X90929659Y-96766705D01*
X90953627Y-96771499D01*
X90965849Y-96777198D01*
X90969384Y-96783902D01*
X90968020Y-96790037D01*
X90949557Y-96837715D01*
X90931997Y-96885125D01*
X90910925Y-96943333D01*
X89441912Y-96943333D01*
X89140377Y-96943043D01*
X88870136Y-96942186D01*
X88632612Y-96940782D01*
X88429222Y-96938851D01*
X88261388Y-96936411D01*
X88130528Y-96933484D01*
X88038064Y-96930088D01*
X87985415Y-96926243D01*
X87972900Y-96922980D01*
X87980955Y-96902086D01*
X88004717Y-96843586D01*
X88043581Y-96748936D01*
X88096939Y-96619592D01*
X88164186Y-96457013D01*
X88244715Y-96262655D01*
X88337922Y-96037974D01*
X88443198Y-95784429D01*
X88559940Y-95503476D01*
X88687539Y-95196571D01*
X88825391Y-94865173D01*
X88972890Y-94510738D01*
X89129428Y-94134723D01*
X89294401Y-93738584D01*
X89467202Y-93323780D01*
X89647225Y-92891767D01*
X89833865Y-92444002D01*
X90026514Y-91981942D01*
X90224566Y-91507044D01*
X90427417Y-91020765D01*
X90620880Y-90557105D01*
X90827733Y-90061407D01*
X91030417Y-89575695D01*
X91228323Y-89101428D01*
X91420843Y-88640065D01*
X91607367Y-88193065D01*
X91787286Y-87761887D01*
X91959993Y-87347991D01*
X92124877Y-86952835D01*
X92281331Y-86577879D01*
X92428746Y-86224581D01*
X92566512Y-85894401D01*
X92694021Y-85588798D01*
X92810664Y-85309230D01*
X92915833Y-85057158D01*
X93008917Y-84834040D01*
X93089310Y-84641334D01*
X93156402Y-84480501D01*
X93209583Y-84353000D01*
X93248246Y-84260288D01*
X93271781Y-84203826D01*
X93279561Y-84185125D01*
X93290092Y-84179713D01*
X93318653Y-84175039D01*
X93367735Y-84171058D01*
X93439825Y-84167724D01*
X93537411Y-84164992D01*
X93662981Y-84162815D01*
X93819025Y-84161149D01*
X94008030Y-84159947D01*
X94232485Y-84159165D01*
X94494878Y-84158756D01*
X94723079Y-84158666D01*
X96155895Y-84158666D01*
X96181314Y-84228961D01*
G36*
X86639400Y-84328000D02*
G01*
X84353400Y-84328000D01*
X84353400Y-96752833D01*
X86639400Y-96752833D01*
X86639400Y-96943333D01*
X83930066Y-96943333D01*
X83930066Y-84158666D01*
X86639400Y-84158666D01*
X86639400Y-84328000D01*
G37*
X86639400Y-84328000D02*
X84353400Y-84328000D01*
X84353400Y-96752833D01*
X86639400Y-96752833D01*
X86639400Y-96943333D01*
X83930066Y-96943333D01*
X83930066Y-84158666D01*
X86639400Y-84158666D01*
X86639400Y-84328000D01*
%TD*%
M02*
